<svg version="1.1" id="Layer_1" xmlns="http://www.w3.org/2000/svg" xmlns:xlink="http://www.w3.org/1999/xlink" x="0px" y="0px"
	 width="100%" viewBox="0 0 144 144" enable-background="new 0 0 144 144" xml:space="preserve">
<path fill="#FFFFFF" opacity="1.000000" stroke="none" 
	d="
M78.000000,145.000000 
	C52.022148,145.000000 26.544300,145.000000 1.033225,145.000000 
	C1.033225,97.063866 1.033225,49.127697 1.033225,1.095765 
	C48.894295,1.095765 96.788849,1.095765 144.841705,1.095765 
	C144.841705,48.999584 144.841705,96.999741 144.841705,145.000000 
	C122.794746,145.000000 100.647377,145.000000 78.000000,145.000000 
M54.500000,10.000000 
	C52.667728,10.000000 50.834156,9.954765 49.003399,10.007412 
	C37.928612,10.325890 26.852396,10.610917 15.780923,11.021988 
	C9.590263,11.251841 8.000992,12.904758 8.000066,18.586050 
	C7.999685,20.918024 8.087416,23.254091 7.978410,25.580959 
	C7.834844,28.645569 8.788179,30.621334 12.169189,31.075472 
	C17.410055,31.779423 22.622358,32.696014 28.000000,33.546692 
	C28.000000,60.944893 27.915678,88.248154 28.090076,115.549759 
	C28.116514,119.688560 29.084845,123.884911 30.098242,127.934334 
	C30.954868,131.357300 33.038563,133.417786 37.219635,133.097992 
	C42.518864,132.692703 47.904640,132.637100 53.193626,133.104111 
	C58.277378,133.553009 61.098305,131.141907 61.867916,126.783066 
	C62.997303,120.386536 63.840096,113.854439 63.907639,107.370758 
	C64.145332,84.553200 64.006584,61.731655 63.987858,38.911640 
	C63.986313,37.027008 63.813122,35.142521 63.706894,33.000000 
	C80.703384,33.000000 97.844017,33.069740 114.983383,32.953510 
	C119.565498,32.922436 124.317169,32.980492 128.682693,31.828890 
	C135.047058,30.150009 136.311127,31.797686 136.009094,22.978952 
	C135.946411,21.148832 135.921799,19.310635 136.017593,17.483391 
	C136.176376,14.454354 135.310349,12.371498 131.894333,11.939077 
	C127.571342,11.391844 123.277229,10.129100 118.962181,10.089048 
	C97.809669,9.892710 76.654335,10.000000 54.500000,10.000000 
M134.984299,92.908669 
	C134.989532,90.412300 134.704941,87.874329 135.056122,85.427620 
	C135.988388,78.932281 132.319489,75.852310 125.438728,75.976601 
	C119.282845,76.087791 113.119400,76.116829 106.968620,75.907684 
	C105.634857,75.862335 103.255951,74.727150 103.198875,73.957451 
	C102.707802,67.335175 98.567505,66.455032 93.224342,66.975052 
	C91.575668,67.135513 89.886269,67.129784 88.235878,66.978317 
	C79.489067,66.175598 78.446411,69.704887 78.189262,76.607559 
	C77.594879,92.562637 77.858261,108.556824 78.066376,124.531334 
	C78.157249,131.506927 80.055771,132.999542 86.898010,132.999985 
	C89.061592,133.000122 91.225174,133.000000 93.388756,133.000000 
	C102.180733,133.000000 103.907570,131.286865 103.987991,122.242294 
	C104.048660,115.419228 103.984566,108.595123 104.014046,101.771645 
	C104.019447,100.522079 104.207542,99.273308 104.313316,97.999962 
	C111.726295,97.999962 118.753494,98.424080 125.688217,97.807739 
	C128.808014,97.530464 131.743164,95.175484 134.984299,92.908669 
z"/>
<path fill="#000000" opacity="1.000000" stroke="none" 
	d="
M55.000000,10.000000 
	C76.654335,10.000000 97.809669,9.892710 118.962181,10.089048 
	C123.277229,10.129100 127.571342,11.391844 131.894333,11.939077 
	C135.310349,12.371498 136.176376,14.454354 136.017593,17.483391 
	C135.921799,19.310635 135.946411,21.148832 136.009094,22.978952 
	C136.311127,31.797686 135.047058,30.150009 128.682693,31.828890 
	C124.317169,32.980492 119.565498,32.922436 114.983383,32.953510 
	C97.844017,33.069740 80.703384,33.000000 63.706894,33.000000 
	C63.813122,35.142521 63.986313,37.027008 63.987858,38.911640 
	C64.006584,61.731655 64.145332,84.553200 63.907639,107.370758 
	C63.840096,113.854439 62.997303,120.386536 61.867916,126.783066 
	C61.098305,131.141907 58.277378,133.553009 53.193626,133.104111 
	C47.904640,132.637100 42.518864,132.692703 37.219635,133.097992 
	C33.038563,133.417786 30.954868,131.357300 30.098242,127.934334 
	C29.084845,123.884911 28.116514,119.688560 28.090076,115.549759 
	C27.915678,88.248154 28.000000,60.944893 28.000000,33.546692 
	C22.622358,32.696014 17.410055,31.779423 12.169189,31.075472 
	C8.788179,30.621334 7.834844,28.645569 7.978410,25.580959 
	C8.087416,23.254091 7.999685,20.918024 8.000066,18.586050 
	C8.000992,12.904758 9.590263,11.251841 15.780923,11.021988 
	C26.852396,10.610917 37.928612,10.325890 49.003399,10.007412 
	C50.834156,9.954765 52.667728,10.000000 55.000000,10.000000 
z"/>
<path fill="#000000" opacity="1.000000" stroke="none" 
	d="
M134.873199,93.335953 
	C131.743164,95.175484 128.808014,97.530464 125.688217,97.807739 
	C118.753494,98.424080 111.726295,97.999962 104.313316,97.999962 
	C104.207542,99.273308 104.019447,100.522079 104.014046,101.771645 
	C103.984566,108.595123 104.048660,115.419228 103.987991,122.242294 
	C103.907570,131.286865 102.180733,133.000000 93.388756,133.000000 
	C91.225174,133.000000 89.061592,133.000122 86.898010,132.999985 
	C80.055771,132.999542 78.157249,131.506927 78.066376,124.531334 
	C77.858261,108.556824 77.594879,92.562637 78.189262,76.607559 
	C78.446411,69.704887 79.489067,66.175598 88.235878,66.978317 
	C89.886269,67.129784 91.575668,67.135513 93.224342,66.975052 
	C98.567505,66.455032 102.707802,67.335175 103.198875,73.957451 
	C103.255951,74.727150 105.634857,75.862335 106.968620,75.907684 
	C113.119400,76.116829 119.282845,76.087791 125.438728,75.976601 
	C132.319489,75.852310 135.988388,78.932281 135.056122,85.427620 
	C134.704941,87.874329 134.989532,90.412300 134.873199,93.335953 
z"/>
</svg>